<?xml version="1.0"?>
<svg xmlns="http://www.w3.org/2000/svg" xmlns:xlink="http://www.w3.org/1999/xlink" xmlns:svgjs="http://svgjs.com/svgjs" version="1.1" width="512" height="512" x="0" y="0" viewBox="0 0 64 64" style="enable-background:new 0 0 512 512" xml:space="preserve" class=""><g><g xmlns="http://www.w3.org/2000/svg" id="Solid"><path d="M61.34,51.53l-24.99-44A4.96,4.96,0,0,0,32,5a4.946,4.946,0,0,0-4.35,2.53l-24.99,44A5.006,5.006,0,0,0,7.01,59H56.99a5.006,5.006,0,0,0,4.35-7.47ZM59.585,55.5A2.933,2.933,0,0,1,56.99,57H7.01a2.952,2.952,0,0,1-2.587-1.489,2.916,2.916,0,0,1-.026-2.99l24.993-44a3,3,0,0,1,5.221,0l24.99,44A2.942,2.942,0,0,1,59.585,55.5Z" fill="#00254d" data-original="#000000" style=""/><path d="M57.863,53.508l-24.99-44A.957.957,0,0,0,32,9a1.009,1.009,0,0,0-.5.125,1.023,1.023,0,0,0-.37.382L6.135,53.512A1.007,1.007,0,0,0,7.01,55H56.99a.944.944,0,0,0,.866-.509A.929.929,0,0,0,57.863,53.508ZM32,52a3,3,0,1,1,3-3A3,3,0,0,1,32,52Zm2.363-10.158A2.373,2.373,0,0,1,32,44h0a2.373,2.373,0,0,1-2.363-2.158l-1.578-19.53A3.954,3.954,0,0,1,32,18H32a3.954,3.954,0,0,1,3.938,4.312Z" fill="#00254d" data-original="#000000" style=""/><path d="M49.9,25.376a1,1,0,0,1-.769-.762,7.857,7.857,0,0,0-3.006-4.629,1,1,0,1,1,1.188-1.608,9.851,9.851,0,0,1,3.77,5.805,1,1,0,0,1-.761,1.192A.969.969,0,0,1,49.9,25.376Z" fill="#00254d" data-original="#000000" style=""/><path d="M54.9,25.55a1,1,0,0,1-.786-.881A12.005,12.005,0,0,0,48.1,15.41a1,1,0,0,1,.988-1.738,14,14,0,0,1,7.015,10.8,1,1,0,0,1-.9,1.092A1.037,1.037,0,0,1,54.9,25.55Z" fill="#00254d" data-original="#000000" style=""/><path d="M59.791,25.722a1,1,0,0,1-.79-.948A15.9,15.9,0,0,0,49.991,10.9a1,1,0,0,1,.869-1.8A17.892,17.892,0,0,1,61,24.714a1,1,0,0,1-.969,1.03A1.057,1.057,0,0,1,59.791,25.722Z" fill="#00254d" data-original="#000000" style=""/></g></g></svg>
