<?xml version="1.0"?>
<svg xmlns="http://www.w3.org/2000/svg" xmlns:xlink="http://www.w3.org/1999/xlink" xmlns:svgjs="http://svgjs.com/svgjs" version="1.1" width="512" height="512" x="0" y="0" viewBox="0 0 512 512" style="enable-background:new 0 0 512 512" xml:space="preserve" class=""><g><path xmlns="http://www.w3.org/2000/svg" d="m373.332031 0c-76.457031 0-138.664062 62.207031-138.664062 138.667969 0 76.457031 62.207031 138.664062 138.664062 138.664062 76.460938 0 138.667969-62.207031 138.667969-138.664062 0-76.460938-62.207031-138.667969-138.667969-138.667969zm64.128907 115.308594-69.332032 80c-3.882812 4.476562-9.453125 7.125-15.359375 7.359375-.257812 0-.511719 0-.769531 0-5.652344 0-11.070312-2.242188-15.082031-6.253907l-37.332031-37.332031c-8.34375-8.339843-8.34375-21.824219 0-30.164062 8.339843-8.34375 21.820312-8.34375 30.164062 0l21.140625 21.140625 54.316406-62.675782c7.722657-8.917968 21.203125-9.835937 30.101563-2.15625 8.894531 7.703126 9.855468 21.183594 2.152344 30.082032zm0 0" fill="#54c5c1" data-original="#4caf50" style="" class=""/><path xmlns="http://www.w3.org/2000/svg" d="m298.667969 426.667969c0 47.128906-38.207031 85.332031-85.335938 85.332031-47.128906 0-85.332031-38.203125-85.332031-85.332031 0-47.128907 38.203125-85.335938 85.332031-85.335938 47.128907 0 85.335938 38.207031 85.335938 85.335938zm0 0" fill="#00254d" data-original="#ffa000" style="" class=""/><path xmlns="http://www.w3.org/2000/svg" d="m380.160156 319.660156c-2.28125.082032-4.523437.339844-6.828125.339844-99.988281 0-181.332031-81.34375-181.332031-181.332031 0-35.136719 10.21875-67.863281 27.585938-95.679688-2.09375-.085937-4.140626-.320312-6.253907-.320312-82.34375 0-149.332031 66.984375-149.332031 149.332031v59.476562c0 42.21875-18.496094 82.070313-50.945312 109.503907-8.296876 7.082031-13.054688 17.429687-13.054688 28.351562 0 20.589844 16.746094 37.335938 37.332031 37.335938h352c20.589844 0 37.335938-16.746094 37.335938-37.335938 0-10.921875-4.757813-21.269531-13.269531-28.542969-13.761719-11.648437-24.855469-25.683593-33.238282-41.128906zm0 0" fill="#00254d" data-original="#ffc107" style="" class=""/></g></svg>
