<?xml version="1.0"?>
<svg xmlns="http://www.w3.org/2000/svg" xmlns:xlink="http://www.w3.org/1999/xlink" xmlns:svgjs="http://svgjs.com/svgjs" version="1.1" width="512" height="512" x="0" y="0" viewBox="0 0 512 512" style="enable-background:new 0 0 512 512" xml:space="preserve" class=""><g><g xmlns="http://www.w3.org/2000/svg"><path d="m512 198.217c0-31.639-25.74-57.378-57.379-57.378h-54.752c-.108-3.408-.165-57.904-.165-57.904 31.708-14.177 53.86-46.016 53.86-82.935h-30c0 33.521-27.272 60.794-60.794 60.794s-60.793-27.273-60.793-60.794h-30c0 50.063 40.73 90.794 90.794 90.794 2.333 0 4.645-.089 6.934-.263v40.079c0 32.045 4.373 64.077 12.843 94.984h-84.698l18.34-18.34-21.213-21.213-54.553 54.553 54.553 54.554 21.213-21.213-18.34-18.341h94.34c4.848 13.088 21.654 48.151 23.896 53.15-105.108 22.622-215.062 22.622-320.17 0 2.242-4.999 4.602-9.945 7.094-14.825 17.232-33.743 29.008-70.25 34.905-107.677h62.996l-18.34 18.34 21.213 21.213 54.555-54.553-54.555-54.553-21.213 21.213 18.34 18.34h-59.547c.617-8.529.934-65.712.934-65.712 2.289.174 4.601.263 6.934.263 50.063 0 90.794-40.73 90.794-90.794h-30c0 33.521-27.272 60.794-60.794 60.794s-60.796-27.272-60.796-60.793h-30c0 36.919 22.152 68.758 53.86 82.935 0 0-.347 64.782-1.02 73.308h-53.897c-31.639 0-57.379 25.74-57.379 57.379s25.74 57.378 57.379 57.378h23.46c-1.468 3.115-2.981 6.208-4.547 9.275-25.702 50.328-39.287 106.798-39.287 163.309v68.416h30v-68.416c0-13.771.889-27.538 2.624-41.199l90.028 33.935c26.705 10.087 44.648 36.043 44.648 64.589v11.091h30s-.161-17.286-.446-20.351h44.28c-.285 3.065-.446 20.351-.446 20.351h30v-11.091c0-28.546 17.943-54.502 44.64-64.585l90.037-33.938c1.735 13.66 2.624 27.427 2.624 41.198v68.416h30v-68.416c0-56.511-13.585-112.981-39.287-163.309-4.118-8.064-7.888-16.303-11.32-24.681h30.233c31.64.001 57.38-25.739 57.38-57.377zm-454.621 42.783c-15.097 0-27.379-12.282-27.379-27.379s12.282-27.378 27.379-27.378h50.134c-3.204 18.615-7.997 36.958-14.32 54.757zm284.364 167.256c-18.911 7.143-34.982 19.707-46.478 36.335-3.738 5.408-6.893 11.121-9.462 17.059h-59.606c-2.569-5.938-5.724-11.651-9.462-17.059-11.495-16.628-27.566-29.192-46.486-36.339l-95.38-35.953c2.649-11.927 5.958-23.707 9.906-35.269 56.162 12.473 113.695 18.802 171.225 18.802s115.063-6.329 171.226-18.802c3.948 11.562 7.258 23.342 9.907 35.27zm60.462-237.417h52.416c15.097 0 27.379 12.281 27.379 27.378s-12.282 27.378-27.379 27.378h-40.866c-5.382-17.884-9.251-36.223-11.55-54.756z" fill="#54c5c1" data-original="#000000" style="" class=""/></g></g></svg>
